<svg width="8" height="13" viewBox="0 0 8 13" fill="none" xmlns="http://www.w3.org/2000/svg">
<path d="M2.03033 0.969669C1.73744 0.676777 1.26256 0.676777 0.96967 0.969669C0.676777 1.26256 0.676777 1.73744 0.96967 2.03033L2.03033 0.969669ZM6.5 6.5L7.03033 7.03033C7.32322 6.73744 7.32322 6.26256 7.03033 5.96967L6.5 6.5ZM0.96967 10.9697C0.676777 11.2626 0.676777 11.7374 0.96967 12.0303C1.26256 12.3232 1.73744 12.3232 2.03033 12.0303L0.96967 10.9697ZM0.96967 2.03033L5.96967 7.03033L7.03033 5.96967L2.03033 0.969669L0.96967 2.03033ZM5.96967 5.96967L0.96967 10.9697L2.03033 12.0303L7.03033 7.03033L5.96967 5.96967Z" fill="#33363A"/>
</svg>
