<svg width="32" height="28" viewBox="-3 0 25 20" fill="none" xmlns="http://www.w3.org/2000/svg">
<path d="M13.1793 5.40381C13.275 5.30805 13.3929 5.26017 13.5328 5.26017C13.6728 5.26017 13.7906 5.30805 13.8864 5.40381C13.9821 5.49956 14.03 5.61741 14.03 5.75736C14.03 5.89731 13.9821 6.01516 13.8864 6.11091L9.9973 10L13.8864 13.8891C13.9821 13.9848 14.03 14.1027 14.03 14.2426C14.03 14.3826 13.9821 14.5004 13.8864 14.5962C13.7906 14.6919 13.6728 14.7398 13.5328 14.7398C13.3929 14.7398 13.275 14.6919 13.1793 14.5962L9.2902 10.7071L5.40111 14.5962C5.30535 14.6919 5.1875 14.7398 5.04755 14.7398C4.90761 14.7398 4.78976 14.6919 4.694 14.5962C4.59825 14.5004 4.55037 14.3826 4.55037 14.2426C4.55037 14.1027 4.59825 13.9848 4.694 13.8891L8.58309 10L4.694 6.11091C4.59825 6.01516 4.55037 5.89731 4.55037 5.75736C4.55037 5.61741 4.59825 5.49956 4.694 5.40381C4.78976 5.30805 4.90761 5.26017 5.04755 5.26017C5.1875 5.26017 5.30535 5.30805 5.40111 5.40381L9.2902 9.29289L13.1793 5.40381Z" fill="black"/>
</svg>
