<svg width="22" height="25" viewBox="0 0 22 25" fill="none" xmlns="http://www.w3.org/2000/svg">
<path d="M13.0909 4.13636C13.0909 2.93138 12.1141 1.95455 10.9091 1.95455C9.70411 1.95455 8.72727 2.93138 8.72727 4.13636H7.27273C7.27273 2.12806 8.90078 0.5 10.9091 0.5C12.9174 0.5 14.5455 2.12806 14.5455 4.13636H21.0909C21.4926 4.13636 21.8182 4.46197 21.8182 4.86364C21.8182 5.2653 21.4926 5.59091 21.0909 5.59091H20.2851L18.3999 21.9244C18.2305 23.3923 16.9876 24.5 15.51 24.5H6.30818C4.83054 24.5 3.58764 23.3923 3.41827 21.9244L1.53164 5.59091H0.727273C0.37024 5.59091 0.0732969 5.33364 0.0117174 4.99436L0 4.86364C0 4.46197 0.325611 4.13636 0.727273 4.13636H13.0909ZM18.8189 5.59091H2.99782L4.86322 21.7576C4.94791 22.4916 5.56936 23.0455 6.30818 23.0455H15.51C16.2488 23.0455 16.8703 22.4916 16.955 21.7576L18.8189 5.59091ZM8.72727 9.22727C9.08431 9.22727 9.38125 9.45239 9.44283 9.74925L9.45455 9.86364V18.7727C9.45455 19.1242 9.12893 19.4091 8.72727 19.4091C8.37024 19.4091 8.0733 19.184 8.01172 18.8871L8 18.7727V9.86364C8 9.51218 8.32561 9.22727 8.72727 9.22727ZM13.0909 9.22727C13.4479 9.22727 13.7449 9.45239 13.8065 9.74925L13.8182 9.86364V18.7727C13.8182 19.1242 13.4926 19.4091 13.0909 19.4091C12.7339 19.4091 12.4369 19.184 12.3754 18.8871L12.3636 18.7727V9.86364C12.3636 9.51218 12.6892 9.22727 13.0909 9.22727Z" fill="black"/>
</svg>
