<svg width="18" height="18" viewBox="0 0 18 18" fill="none" xmlns="http://www.w3.org/2000/svg">
<path d="M17.1247 0.875295C18.2918 2.04236 18.2918 3.93453 17.1247 5.10159L6.08769 16.1386C5.60894 16.6174 5.00909 16.957 4.35226 17.1212L0.928992 17.977C0.381822 18.1138 -0.113806 17.6182 0.0229868 17.071L0.878803 13.6477C1.04301 12.9909 1.38264 12.3911 1.86139 11.9123L12.8984 0.875295C14.0655 -0.291765 15.9576 -0.291765 17.1247 0.875295ZM11.8417 4.04486L2.91796 12.9689C2.63072 13.2561 2.42694 13.616 2.32841 14.0101L1.7746 16.2254L3.98985 15.6716C4.38395 15.5731 4.74387 15.3693 5.03111 15.082L13.9545 6.15769L11.8417 4.04486ZM13.955 1.93187L12.8981 2.98845L15.011 5.10128L16.0681 4.04502C16.6517 3.46149 16.6517 2.5154 16.0681 1.93187C15.4846 1.34834 14.5385 1.34834 13.955 1.93187Z" fill="white"/>
</svg>
