<svg width="24" height="22" viewBox="0 0 24 22" fill="none" xmlns="http://www.w3.org/2000/svg">
<path d="M1 12C0.447716 12 0 11.5523 0 11C0 10.4477 0.447716 10 1 10V12ZM23 11L23.7071 10.2929C24.0976 10.6834 24.0976 11.3166 23.7071 11.7071L23 11ZM12.2929 1.70711C11.9024 1.31658 11.9024 0.683417 12.2929 0.292893C12.6834 -0.0976311 13.3166 -0.0976311 13.7071 0.292893L12.2929 1.70711ZM13.7071 21.7071C13.3166 22.0976 12.6834 22.0976 12.2929 21.7071C11.9024 21.3166 11.9024 20.6834 12.2929 20.2929L13.7071 21.7071ZM1 10H23V12H1V10ZM22.2929 11.7071L12.2929 1.70711L13.7071 0.292893L23.7071 10.2929L22.2929 11.7071ZM23.7071 11.7071L13.7071 21.7071L12.2929 20.2929L22.2929 10.2929L23.7071 11.7071Z" fill="black"/>
</svg>
