<svg width="34" height="20" viewBox="0 0 34 20" fill="none" xmlns="http://www.w3.org/2000/svg">
<path d="M1.344 5.616H4.992C5.90933 5.616 6.624 5.67467 7.136 5.792C7.65867 5.89867 8.03733 6.096 8.272 6.384C8.51733 6.672 8.64 7.09333 8.64 7.648V9.44C8.64 10.0587 8.384 10.5387 7.872 10.88C7.37067 11.2107 6.73067 11.376 5.952 11.376L9.28 16H7.376L4.4 11.568H2.896V16H1.344V5.616ZM4.928 10.544C5.696 10.544 6.24533 10.4533 6.576 10.272C6.91733 10.08 7.088 9.73867 7.088 9.248V7.808C7.088 7.02933 6.416 6.64 5.072 6.64H2.896V10.544H4.928ZM14.0454 16.16C13.0534 16.16 12.3547 15.984 11.9494 15.632C11.5547 15.2693 11.3574 14.704 11.3574 13.936V8.256H12.7974V13.856C12.7974 14.0587 12.8134 14.224 12.8454 14.352C12.888 14.4693 12.9574 14.592 13.0534 14.72C13.2454 14.9973 13.7147 15.136 14.4614 15.136C15.2507 15.136 15.8054 15.0613 16.1254 14.912C16.4347 14.7627 16.5894 14.4907 16.5894 14.096V8.256H18.0294V16H16.5894V15.056C16.4507 15.792 15.6027 16.16 14.0454 16.16Z" fill="#33363A"/>
<path d="M33.3536 10.3536C33.5488 10.1583 33.5488 9.84171 33.3536 9.64645C33.1583 9.45118 32.8417 9.45118 32.6464 9.64645L33.3536 10.3536ZM29.5 13.5L29.1464 13.8536C29.3417 14.0488 29.6583 14.0488 29.8536 13.8536L29.5 13.5ZM26.3536 9.64645C26.1583 9.45118 25.8417 9.45118 25.6464 9.64645C25.4512 9.84171 25.4512 10.1583 25.6464 10.3536L26.3536 9.64645ZM32.6464 9.64645L29.1464 13.1464L29.8536 13.8536L33.3536 10.3536L32.6464 9.64645ZM29.8536 13.1464L26.3536 9.64645L25.6464 10.3536L29.1464 13.8536L29.8536 13.1464Z" fill="#33363A"/>
</svg>
