<svg width="10" height="6" viewBox="0 0 9 5" fill="none" xmlns="http://www.w3.org/2000/svg">
<path d="M8.35355 1.35355C8.54882 1.15829 8.54882 0.841708 8.35355 0.646446C8.15829 0.451184 7.84171 0.451184 7.64645 0.646446L8.35355 1.35355ZM4.5 4.5L4.14645 4.85355C4.34171 5.04882 4.65829 5.04882 4.85355 4.85355L4.5 4.5ZM1.35355 0.646447C1.15829 0.451184 0.841709 0.451184 0.646447 0.646447C0.451184 0.841709 0.451184 1.15829 0.646447 1.35355L1.35355 0.646447ZM7.64645 0.646446L4.14645 4.14645L4.85355 4.85355L8.35355 1.35355L7.64645 0.646446ZM4.85355 4.14645L1.35355 0.646447L0.646447 1.35355L4.14645 4.85355L4.85355 4.14645Z" fill="#33363A"/>
</svg>
