<svg width="16" height="20" viewBox="0 0 16 20" fill="none" xmlns="http://www.w3.org/2000/svg">
<path d="M8 0C10.2091 0 12 1.79086 12 4V5.33333H13.3333C14.8061 5.33333 16 6.52724 16 8V17.3333C16 18.8061 14.8061 20 13.3333 20H2.66667C1.19391 20 0 18.8061 0 17.3333V8C0 6.52724 1.19391 5.33333 2.66667 5.33333H4V4C4 1.79086 5.79086 0 8 0ZM13.3333 6.66667H2.66667C1.93029 6.66667 1.33333 7.26362 1.33333 8V17.3333C1.33333 18.0697 1.93029 18.6667 2.66667 18.6667H13.3333C14.0697 18.6667 14.6667 18.0697 14.6667 17.3333V8C14.6667 7.26362 14.0697 6.66667 13.3333 6.66667ZM8 11.3333C8.73638 11.3333 9.33333 11.9303 9.33333 12.6667C9.33333 13.403 8.73638 14 8 14C7.26362 14 6.66667 13.403 6.66667 12.6667C6.66667 11.9303 7.26362 11.3333 8 11.3333ZM8 1.33333C6.52724 1.33333 5.33333 2.52724 5.33333 4V5.33333H10.6667V4C10.6667 2.52724 9.47276 1.33333 8 1.33333Z" fill="white"/>
</svg>
