<svg width="32" height="28" viewBox="0 0 32 28" fill="none" xmlns="http://www.w3.org/2000/svg">
<path fill-rule="evenodd" clip-rule="evenodd" d="M23.7657 21.7657C23.4533 22.0781 22.9467 22.0781 22.6343 21.7657L18.3245 17.4559C17.2408 18.2983 15.879 18.8 14.4 18.8C10.8654 18.8 8 15.9346 8 12.4C8 8.86538 10.8654 6 14.4 6C17.9346 6 20.8 8.86538 20.8 12.4C20.8 13.879 20.2983 15.2408 19.4559 16.3245L23.7657 20.6343C24.0781 20.9467 24.0781 21.4533 23.7657 21.7657ZM14.4 17.2C11.749 17.2 9.6 15.051 9.6 12.4C9.6 9.74903 11.749 7.6 14.4 7.6C17.051 7.6 19.2 9.74903 19.2 12.4C19.2 15.051 17.051 17.2 14.4 17.2Z" fill="#33363A"/>
</svg>
